<mxfile host="app.diagrams.net" modified="2022-12-09T05:28:37.849Z" agent="5.0 (Macintosh; Intel Mac OS X 10_15_7) AppleWebKit/537.36 (KHTML, like Gecko) Chrome/108.0.0.0 Safari/537.36" etag="sr67mTgLx7sR65d4GirC" version="20.5.3" type="github">
  <diagram id="HwjHQKUTTlCAnMzNe80x" name="第 1 页">
    <mxGraphModel dx="988" dy="1874" grid="1" gridSize="10" guides="1" tooltips="1" connect="1" arrows="1" fold="1" page="1" pageScale="1" pageWidth="827" pageHeight="1169" math="0" shadow="0">
      <root>
        <mxCell id="0" />
        <mxCell id="1" parent="0" />
        <mxCell id="1pZlpKDnwWjdcUXR3ADt-4" style="edgeStyle=orthogonalEdgeStyle;rounded=0;orthogonalLoop=1;jettySize=auto;html=1;exitX=0.5;exitY=1;exitDx=0;exitDy=0;entryX=0.5;entryY=0;entryDx=0;entryDy=0;" edge="1" parent="1" source="1pZlpKDnwWjdcUXR3ADt-1" target="1pZlpKDnwWjdcUXR3ADt-2">
          <mxGeometry relative="1" as="geometry" />
        </mxCell>
        <mxCell id="1pZlpKDnwWjdcUXR3ADt-5" style="edgeStyle=orthogonalEdgeStyle;rounded=0;orthogonalLoop=1;jettySize=auto;html=1;exitX=0.5;exitY=1;exitDx=0;exitDy=0;entryX=0.5;entryY=0;entryDx=0;entryDy=0;" edge="1" parent="1" source="1pZlpKDnwWjdcUXR3ADt-1" target="1pZlpKDnwWjdcUXR3ADt-3">
          <mxGeometry relative="1" as="geometry" />
        </mxCell>
        <mxCell id="1pZlpKDnwWjdcUXR3ADt-1" value="Popover" style="rounded=0;whiteSpace=wrap;html=1;" vertex="1" parent="1">
          <mxGeometry x="470" y="360" width="120" height="60" as="geometry" />
        </mxCell>
        <mxCell id="1pZlpKDnwWjdcUXR3ADt-2" value="" style="rounded=0;whiteSpace=wrap;html=1;" vertex="1" parent="1">
          <mxGeometry x="180" y="475" width="450" height="485" as="geometry" />
        </mxCell>
        <mxCell id="1pZlpKDnwWjdcUXR3ADt-3" value="" style="rounded=0;whiteSpace=wrap;html=1;" vertex="1" parent="1">
          <mxGeometry x="690" y="475" width="440" height="485" as="geometry" />
        </mxCell>
        <mxCell id="1pZlpKDnwWjdcUXR3ADt-7" value="&lt;div style=&quot;&quot; data-line-index=&quot;0&quot; data-zone-id=&quot;0&quot;&gt;&lt;div style=&quot;&quot; data-line-index=&quot;0&quot; data-zone-id=&quot;0&quot;&gt;PopoverContextProvider&lt;/div&gt;&lt;/div&gt;&lt;div style=&quot;&quot; data-line-index=&quot;0&quot; data-zone-id=&quot;0&quot;&gt;&lt;/div&gt;" style="rounded=0;whiteSpace=wrap;html=1;" vertex="1" parent="1">
          <mxGeometry x="200" y="250" width="160" height="40" as="geometry" />
        </mxCell>
        <mxCell id="1pZlpKDnwWjdcUXR3ADt-10" style="edgeStyle=orthogonalEdgeStyle;rounded=0;orthogonalLoop=1;jettySize=auto;html=1;exitX=0;exitY=0.5;exitDx=0;exitDy=0;" edge="1" parent="1" source="1pZlpKDnwWjdcUXR3ADt-8" target="1pZlpKDnwWjdcUXR3ADt-7">
          <mxGeometry relative="1" as="geometry" />
        </mxCell>
        <mxCell id="1pZlpKDnwWjdcUXR3ADt-13" value="&lt;span style=&quot;font-size: 12px; background-color: rgb(248, 249, 250);&quot;&gt;createSafeContext&amp;lt;&lt;/span&gt;&lt;span style=&quot;font-size: 12px; background-color: initial;&quot;&gt;PopoverContext&lt;/span&gt;&lt;span style=&quot;font-size: 12px; background-color: initial;&quot;&gt;&amp;gt;&lt;/span&gt;" style="edgeLabel;html=1;align=center;verticalAlign=middle;resizable=0;points=[];" vertex="1" connectable="0" parent="1pZlpKDnwWjdcUXR3ADt-10">
          <mxGeometry x="-0.6171" y="2" relative="1" as="geometry">
            <mxPoint x="105" y="48" as="offset" />
          </mxGeometry>
        </mxCell>
        <mxCell id="1pZlpKDnwWjdcUXR3ADt-15" style="edgeStyle=orthogonalEdgeStyle;rounded=0;orthogonalLoop=1;jettySize=auto;html=1;exitX=1;exitY=0.5;exitDx=0;exitDy=0;entryX=0.5;entryY=0;entryDx=0;entryDy=0;" edge="1" parent="1" source="1pZlpKDnwWjdcUXR3ADt-8" target="1pZlpKDnwWjdcUXR3ADt-14">
          <mxGeometry relative="1" as="geometry" />
        </mxCell>
        <mxCell id="1pZlpKDnwWjdcUXR3ADt-8" value="&lt;div style=&quot;&quot; data-line-index=&quot;0&quot; data-zone-id=&quot;0&quot;&gt;errorMessage&lt;/div&gt;&lt;div style=&quot;&quot; data-line-index=&quot;0&quot; data-zone-id=&quot;0&quot;&gt;&lt;/div&gt;" style="rounded=0;whiteSpace=wrap;html=1;" vertex="1" parent="1">
          <mxGeometry x="307.5" y="140" width="165" height="40" as="geometry" />
        </mxCell>
        <mxCell id="1pZlpKDnwWjdcUXR3ADt-14" value="&lt;div style=&quot;&quot; data-line-index=&quot;0&quot; data-zone-id=&quot;0&quot;&gt;&lt;div style=&quot;&quot; data-line-index=&quot;0&quot; data-zone-id=&quot;0&quot;&gt;&lt;div style=&quot;&quot; data-line-index=&quot;0&quot; data-zone-id=&quot;0&quot;&gt;usePopoverContext&lt;/div&gt;&lt;/div&gt;&lt;/div&gt;&lt;div style=&quot;&quot; data-line-index=&quot;0&quot; data-zone-id=&quot;0&quot;&gt;&lt;/div&gt;" style="rounded=0;whiteSpace=wrap;html=1;" vertex="1" parent="1">
          <mxGeometry x="420" y="250" width="160" height="40" as="geometry" />
        </mxCell>
        <mxCell id="1pZlpKDnwWjdcUXR3ADt-16" value="&lt;div style=&quot;&quot; data-line-index=&quot;0&quot; data-zone-id=&quot;0&quot;&gt;&lt;div style=&quot;&quot; data-line-index=&quot;0&quot; data-zone-id=&quot;0&quot;&gt;&lt;div style=&quot;&quot; data-line-index=&quot;0&quot; data-zone-id=&quot;0&quot;&gt;&lt;div style=&quot;&quot; data-line-index=&quot;0&quot; data-zone-id=&quot;0&quot;&gt;usePopover&lt;/div&gt;&lt;/div&gt;&lt;/div&gt;&lt;/div&gt;&lt;div style=&quot;&quot; data-line-index=&quot;0&quot; data-zone-id=&quot;0&quot;&gt;&lt;/div&gt;" style="rounded=0;whiteSpace=wrap;html=1;" vertex="1" parent="1">
          <mxGeometry x="200" y="360" width="160" height="40" as="geometry" />
        </mxCell>
        <mxCell id="1pZlpKDnwWjdcUXR3ADt-18" value="&lt;div style=&quot;&quot; data-line-index=&quot;0&quot; data-zone-id=&quot;0&quot;&gt;Popover.Target&lt;/div&gt;" style="text;html=1;align=center;verticalAlign=middle;resizable=0;points=[];autosize=1;strokeColor=none;fillColor=none;" vertex="1" parent="1">
          <mxGeometry x="180" y="475" width="100" height="30" as="geometry" />
        </mxCell>
        <mxCell id="1pZlpKDnwWjdcUXR3ADt-26" style="edgeStyle=orthogonalEdgeStyle;rounded=0;orthogonalLoop=1;jettySize=auto;html=1;exitX=0.5;exitY=1;exitDx=0;exitDy=0;entryX=0.5;entryY=0;entryDx=0;entryDy=0;" edge="1" parent="1" source="1pZlpKDnwWjdcUXR3ADt-23" target="1pZlpKDnwWjdcUXR3ADt-25">
          <mxGeometry relative="1" as="geometry" />
        </mxCell>
        <mxCell id="1pZlpKDnwWjdcUXR3ADt-23" value="&lt;span style=&quot;&quot;&gt;props&lt;/span&gt;" style="rounded=0;whiteSpace=wrap;html=1;" vertex="1" parent="1">
          <mxGeometry x="210" y="520" width="83" height="40" as="geometry" />
        </mxCell>
        <mxCell id="1pZlpKDnwWjdcUXR3ADt-27" style="edgeStyle=orthogonalEdgeStyle;rounded=0;orthogonalLoop=1;jettySize=auto;html=1;exitX=0.5;exitY=1;exitDx=0;exitDy=0;entryX=0.5;entryY=0;entryDx=0;entryDy=0;" edge="1" parent="1" source="1pZlpKDnwWjdcUXR3ADt-24" target="1pZlpKDnwWjdcUXR3ADt-25">
          <mxGeometry relative="1" as="geometry" />
        </mxCell>
        <mxCell id="1pZlpKDnwWjdcUXR3ADt-24" value="&lt;span style=&quot;&quot;&gt;defaultProps&lt;/span&gt;" style="rounded=0;whiteSpace=wrap;html=1;" vertex="1" parent="1">
          <mxGeometry x="307" y="520" width="83" height="40" as="geometry" />
        </mxCell>
        <mxCell id="1pZlpKDnwWjdcUXR3ADt-25" value="&lt;span style=&quot;&quot;&gt;useComponentDefaultProps&lt;/span&gt;" style="rounded=0;whiteSpace=wrap;html=1;" vertex="1" parent="1">
          <mxGeometry x="210" y="600" width="180" height="40" as="geometry" />
        </mxCell>
        <mxCell id="1pZlpKDnwWjdcUXR3ADt-29" style="edgeStyle=orthogonalEdgeStyle;rounded=0;orthogonalLoop=1;jettySize=auto;html=1;exitX=0.5;exitY=1;exitDx=0;exitDy=0;entryX=0.5;entryY=0;entryDx=0;entryDy=0;" edge="1" parent="1" source="1pZlpKDnwWjdcUXR3ADt-30" target="1pZlpKDnwWjdcUXR3ADt-33">
          <mxGeometry relative="1" as="geometry" />
        </mxCell>
        <mxCell id="1pZlpKDnwWjdcUXR3ADt-30" value="&lt;span style=&quot;&quot;&gt;props&lt;/span&gt;" style="rounded=0;whiteSpace=wrap;html=1;" vertex="1" parent="1">
          <mxGeometry x="720" y="520" width="83" height="40" as="geometry" />
        </mxCell>
        <mxCell id="1pZlpKDnwWjdcUXR3ADt-31" style="edgeStyle=orthogonalEdgeStyle;rounded=0;orthogonalLoop=1;jettySize=auto;html=1;exitX=0.5;exitY=1;exitDx=0;exitDy=0;entryX=0.5;entryY=0;entryDx=0;entryDy=0;" edge="1" parent="1" source="1pZlpKDnwWjdcUXR3ADt-32" target="1pZlpKDnwWjdcUXR3ADt-33">
          <mxGeometry relative="1" as="geometry" />
        </mxCell>
        <mxCell id="1pZlpKDnwWjdcUXR3ADt-32" value="&lt;span style=&quot;&quot;&gt;defaultProps&lt;/span&gt;" style="rounded=0;whiteSpace=wrap;html=1;" vertex="1" parent="1">
          <mxGeometry x="817" y="520" width="83" height="40" as="geometry" />
        </mxCell>
        <mxCell id="1pZlpKDnwWjdcUXR3ADt-33" value="&lt;span style=&quot;&quot;&gt;useComponentDefaultProps&lt;/span&gt;" style="rounded=0;whiteSpace=wrap;html=1;" vertex="1" parent="1">
          <mxGeometry x="720" y="600" width="180" height="40" as="geometry" />
        </mxCell>
        <mxCell id="1pZlpKDnwWjdcUXR3ADt-36" value="&lt;div style=&quot;&quot; data-line-index=&quot;0&quot; data-zone-id=&quot;0&quot;&gt;Popover.Dropdown&lt;/div&gt;" style="text;html=1;align=center;verticalAlign=middle;resizable=0;points=[];autosize=1;strokeColor=none;fillColor=none;" vertex="1" parent="1">
          <mxGeometry x="690" y="475" width="130" height="30" as="geometry" />
        </mxCell>
      </root>
    </mxGraphModel>
  </diagram>
</mxfile>
